<?xml version="1.0" encoding="UTF-8"?>
<!-- Generated by Pixelmator Pro 4.2 -->
<svg width="1000" height="1000" viewBox="0 0 1000 1000" xmlns="http://www.w3.org/2000/svg">
    <path id="Path" fill="#45066a" stroke="none" d="M 302.275604 560.029053 C 283.443115 560.975342 261.964142 557.698975 244.788361 550.085327 C 207.539108 533.579712 213.573578 489.725189 226.275436 458.128784 C 233.606781 439.888794 245.306488 422.939575 258.545105 408.463074 C 264.861908 401.55365 271.706146 393.462219 279.797607 388.622192 C 289.282104 382.947632 300.953918 383.735718 311.223389 380.270142 C 319.969482 377.316528 328.827271 373.801331 336.291992 368.250854 C 350.210052 357.903809 354.224762 342.437561 355.828796 325.925781 C 358.242584 301.052612 357.910645 243.835327 398.011139 251.743713 C 412.177429 254.539124 418.795135 262.562378 419.94928 276.951965 C 421.410583 295.16394 407.877258 314.548706 397.843597 328.531921 C 387.586548 342.825439 393.692383 348.053223 400.170502 331.246704 C 406.223572 315.544617 419.207794 293.240356 433.693604 282.899536 C 443.618683 275.813293 455.976166 278.62738 462.386047 288.952637 C 471.04837 302.898682 463.769775 320.412537 456.636993 333.266479 C 447.174194 350.32428 391.716034 410.442505 423.790253 427.568542 C 450.512543 441.840332 489.18277 414.525452 517.453247 414.931824 C 541.842407 415.282471 566.383667 423.231262 589.227783 431.062073 C 620.501526 441.781372 651.924194 455.0448 678.8078 474.562988 C 721.263184 505.383728 732.522339 546.477112 734.356018 596.37854 C 734.656921 604.485535 734.917542 612.598755 735.206055 620.705688 C 746.673096 618.015747 765.362854 604.556885 776.774048 611.363892 C 794.88678 622.170105 770.587585 656.782227 761.019348 665.363892 C 748.916199 676.225891 736.425354 677.321045 721.185608 678.968506 C 702.666443 680.966675 688.36676 693.559875 677.647461 708.101563 C 669.466003 719.199341 666.717163 723.288452 653.736084 728.25885 C 640.100342 733.486633 628.081055 738.280029 613.415283 739.241943 C 592.615723 740.603882 572.210266 745.018921 551.69928 748.487549 C 538.482361 750.7276 520.980896 752.120605 511.558441 740.287476 C 503.622101 730.322021 508.319336 719.152832 517.856567 712.559875 C 526.56543 706.54718 538.733704 699.947998 549.462341 699.3927 C 536.214417 693.823608 520.199036 693.994263 506.206543 690.600037 C 494.813934 687.835693 469.065826 672.263916 462.463623 685.151978 C 456.224365 697.326416 453.76712 711.542236 442.476929 720.80957 C 431.754486 729.614624 413.96756 722.426025 405.953644 713.239319 C 399.953339 734.764893 363.020538 745.996155 343.086609 740.188232 C 311.387817 730.951843 353.849365 704.657776 362.260406 695.418335 C 374.676819 681.782593 372.563995 667.845825 358.745178 656.198975 C 345.236694 644.815674 333.633148 634.204956 322.646973 619.979736 C 310.975189 604.808228 293.352661 579.925781 302.306641 560.007324 Z"/>
</svg>
