<?xml version="1.0" encoding="UTF-8"?>
<!-- Generated by Pixelmator Pro 4.2 -->
<svg width="1000" height="1000" viewBox="0 0 1000 1000" xmlns="http://www.w3.org/2000/svg">
    <path id="path1891" fill="#45066a" fill-rule="evenodd" stroke="none" d="M 422.16275 687.051514 L 602.293823 687.051514 C 602.293823 661.450623 600.460632 656.365479 558.058105 656.365479 C 564.832947 636.041016 592.362671 586.879517 607.665894 586.879517 C 621.215515 586.879517 637.363586 587.628784 637.363586 618.506104 C 637.363586 653.575806 696.376404 710.133789 710.691223 687.051514 C 732.020081 652.683167 674.027405 663.17218 674.027405 580.248169 C 674.027405 466.829346 740.213623 482.977356 740.213623 419.246033 C 740.213623 387.364502 731.414307 383.060425 731.414307 360.265076 C 731.414307 330.148132 757.95575 331.89679 752.790894 306.919128 C 749.220154 289.666443 746.430481 275.829834 744.358215 254.966553 C 742.875793 240.162292 742.397522 224.384094 727.03064 225.018494 C 708.969604 225.764587 702.115112 257.56488 674.027405 259.846008 C 646.003479 262.120789 622.108215 235.987427 611.252502 239.720764 C 600.508484 243.420593 603.887878 272.598633 610.264221 293.321716 C 620.291016 325.891907 642.145813 368.235535 602.293823 374.611816 C 562.441833 380.988159 493.896362 387.364502 444.479889 452.721741 C 395.063385 518.078979 396.880646 594.786194 377.528503 618.506104 C 312.55542 698.146362 245.975464 665.45166 245.975464 731.685791 C 245.975464 761.351624 296.228821 782.696289 304.199219 773.131836 C 312.169647 763.567383 236.474747 735.081177 321.1698 701.398254 C 393.533081 672.641052 399.989105 666.77478 422.16275 687.051514 Z"/>
</svg>
