<?xml version="1.0" encoding="UTF-8"?>
<!-- Generated by Pixelmator Pro 4.2 -->
<svg width="1000" height="1000" viewBox="0 0 1000 1000" xmlns="http://www.w3.org/2000/svg">
    <path id="Path" fill="#45066a" stroke="none" d="M 399.812103 370.735046 L 401.462219 370.735046 C 407.339661 371.004822 413.2146 371.368896 419.089417 371.695251 C 429.367371 372.115967 439.650299 372.447693 449.925537 372.898132 C 457.740936 373.359375 465.566437 373.701843 473.356354 374.535217 C 486.063599 375.810974 498.75058 377.820313 511.050323 381.499084 C 514.765808 382.51593 518.364014 383.926514 522.000427 385.210266 C 524.256714 385.62561 526.56134 385.709229 528.840576 385.989746 C 541.496887 387.316711 554.188782 388.276917 566.829895 389.779175 C 584.365417 391.742615 601.946777 394.561096 618.72345 400.48114 C 624.073669 402.431152 629.296631 404.747986 634.649475 406.695251 C 643.952026 410.117798 653.427734 413.049561 663.066406 415.2099 C 665.768311 415.824829 668.454895 416.536865 671.187378 416.992676 C 674.912964 417.6427 678.615601 418.470703 682.371765 418.929199 C 685.185608 419.301453 687.994507 419.727539 690.813599 420.064697 C 694.220764 420.372131 697.630615 420.679626 701.040405 420.968201 C 704.325562 421.132751 707.615601 421.240601 710.903259 421.38623 C 730.009949 421.699097 749.297424 419.670898 767.614807 413.710327 C 769.596008 413.13855 771.50592 412.332153 773.44635 411.620117 C 775.751038 410.781311 778.025085 409.718689 780.482544 409.500244 C 784.289673 409.146912 788.08905 410.314697 791.425049 412.208069 C 794.626038 413.980042 797.54187 416.269836 800.335327 418.683777 C 806.571899 423.856812 812.375488 429.731018 819.419189 433.698425 L 819.419189 434.084106 C 815.622375 434.003174 811.98584 432.678894 808.374756 431.57312 C 804.338562 430.337891 800.345581 428.943481 796.248169 427.948242 C 793.732239 427.443909 791.134705 426.823608 788.583069 427.433105 C 780.03949 428.859863 772.20874 433.09967 764.917969 437.854614 C 754.609619 444.6297 745.141541 452.761414 734.611633 459.164246 C 730.147461 461.920654 725.352356 463.981262 720.636108 466.182068 C 699.947998 475.51123 678.564636 483.427185 656.407166 487.739807 C 643.34845 490.231934 630.017334 491.445618 616.76001 490.439606 C 613.910339 490.118652 611.04303 489.954132 608.211243 489.476776 C 602.616455 488.621765 597.10321 487.227356 591.482971 486.569275 C 585.055542 485.606445 578.485352 485.725098 572.108887 487.030457 C 567.002991 488.020325 561.953247 489.306854 556.872864 490.434204 C 562.230774 494.81427 568.013977 498.714233 572.674133 503.96814 C 576.351379 508.181 578.083008 513.715454 580.257813 518.847961 C 583.639587 523.063477 586.152954 527.937134 588.893066 532.621948 C 591.312317 536.794312 593.469177 541.150085 596.211914 545.098633 C 597.029358 546.379761 598.333069 547.156494 599.290649 548.302795 C 602.781982 552.17041 604.837036 557.21936 606.194336 562.308716 C 608.636475 570.551025 609.805298 579.254517 613.357788 587.100281 C 613.74231 588.02002 614.442566 588.904663 614.261841 589.975342 C 613.747437 595.833374 613.474915 601.718506 612.751709 607.552246 C 612.013184 612.655151 610.678833 617.936035 607.408997 621.908813 C 603.487305 624.624756 599.102173 627.038696 594.319824 627.205933 C 593.387756 627.292175 592.447998 626.968506 591.531372 627.130371 C 588.381287 628.667725 584.82373 628.424988 581.480042 629.115417 L 580.881592 629.115417 C 580.043762 628.665039 580.222046 627.610413 580.219543 626.785156 C 579.183105 626.798645 578.133911 626.774292 577.125427 627.060181 C 575.908325 627.400146 574.838745 628.18219 573.955017 629.115417 L 573.664673 629.115417 C 574.148499 627.855835 574.718994 626.623291 575.584778 625.601074 C 573.557739 626.404846 571.174133 626.159424 569.521484 624.60321 C 567.237244 626.205322 564.22467 626.113525 561.777405 624.988892 C 560.809753 624.573486 559.890503 623.880371 559.597534 622.766479 C 556.933899 622.912109 555.013794 625.210022 552.698975 626.348145 C 552.446838 625.423096 553.030029 624.614014 553.432434 623.850708 C 554.682739 621.757813 556.134216 619.724182 558.046753 618.256958 C 558.706299 617.658203 559.5849 617.490967 560.414978 617.744507 C 562.737488 615.376465 565.877319 613.922729 569.070679 613.545166 C 570.557861 613.294312 571.968689 614.076477 573.453369 613.976685 C 575.811401 613.863403 578.070251 612.997681 580.20166 611.972778 C 581.561523 611.330811 582.294922 609.87439 583.048706 608.598755 C 584.319458 606.060791 585.646301 603.433838 585.888062 600.523682 C 586.155457 598.007263 585.679382 595.501709 585.480652 593.001465 C 585.195435 590.549805 585.124207 588.052368 584.52063 585.654663 C 583.88147 583.043884 582.766052 580.594971 581.487671 578.275452 C 579.934265 575.411133 578.391113 572.541443 576.853027 569.671753 C 575.406555 567.017822 574.087402 564.264038 572.233521 561.896118 C 566.455444 554.400879 558.33197 549.489502 550.063293 545.697388 C 537.417236 540.041626 523.996887 536.780884 510.787903 532.986023 C 508.814392 532.597656 507.090363 531.467651 505.345917 530.483154 C 496.639313 525.25354 489.254364 517.84729 482.972015 509.659027 C 482.121399 508.558594 481.365112 507.38266 480.537537 506.263397 C 477.591156 507.517517 474.395172 507.706299 471.298584 508.275391 C 469.080627 508.58017 466.895691 509.116882 464.776917 509.87207 C 467.24707 514.217041 469.268982 518.885681 470.450653 523.813232 C 470.952332 526.049194 471.23999 528.35791 471.107635 530.658447 C 471.008331 533.209961 469.870026 535.631958 470.180725 538.213013 C 470.578003 542.487915 472.592285 546.363525 474.80777 549.875122 C 477.484222 554.346924 480.63681 558.468079 483.486328 562.813049 C 484.711365 564.711792 485.885254 566.667175 486.756134 568.781738 C 487.30368 570.114014 487.698456 571.554321 487.627106 573.02417 C 487.530334 575.408447 486.616058 577.649658 485.523651 579.699524 C 482.712219 584.66748 478.984131 588.937012 475.426575 593.300842 C 473.850311 595.129517 472.571869 597.252075 470.78421 598.867676 C 469.999878 599.606689 468.874329 600.315979 468.912506 601.580872 C 468.874329 603.97052 468.584045 606.376343 467.825104 608.63916 C 467.626495 609.267578 467.2547 609.807007 466.842102 610.300537 C 466.610443 609.747681 466.386322 609.192017 466.167297 608.636475 C 465.571442 609.016724 464.899139 609.151611 464.22934 608.927734 C 463.908539 609.839355 463.536713 610.875061 462.63266 611.295776 C 461.517303 611.775879 460.417206 612.293701 459.411346 612.997681 C 455.077179 615.605713 449.92804 615.344116 445.120178 615.70282 C 442.599091 616.231445 440.065308 616.935364 437.472809 616.849121 C 435.606201 616.800598 433.836395 616.096619 432.130188 615.363037 C 431.26944 614.882935 431.852661 613.793213 432.063965 613.078552 C 429.963104 613.083984 428.435181 614.831665 426.553345 615.551819 C 426.835968 614.346191 427.663574 613.421143 428.231476 612.366516 C 428.919006 611.255371 429.708527 609.909546 431.065735 609.720703 C 432.025787 609.626282 432.784668 608.957397 433.635284 608.547485 C 432.389984 608.445007 431.154907 608.167236 430.049683 607.541382 C 429.385101 607.126099 428.608307 607.409302 427.897827 607.473999 C 425.49649 607.835449 422.896484 607.894775 420.691132 606.67572 C 419.305847 605.950195 418.376343 604.598938 417.380615 603.401367 C 416.815338 602.786499 417.062317 601.888428 417.204895 601.157471 C 415.648987 600.728638 414.059906 601.262695 412.730652 602.117676 C 411.681427 602.651733 410.726501 603.530884 409.529572 603.619873 C 411.885223 600.342896 414.742432 596.923096 418.714996 596.008728 C 421.126556 595.768677 423.568665 595.229309 425.980316 595.774109 C 427.251068 595.930542 428.478455 596.696472 429.782349 596.378235 C 432.743988 595.741699 435.922028 595.976318 438.66983 597.368042 C 440.880188 596.518494 443.006592 595.388367 444.857849 593.834961 C 448.92981 590.404175 451.677521 585.581848 453.908325 580.681213 C 454.519409 579.019836 455.456604 577.47168 455.800385 575.713257 C 456.019409 572.867798 454.865784 570.176147 454.603485 567.373779 C 454.374329 564.978821 453.859924 562.605347 452.848877 560.439697 C 451.063843 556.380493 447.781311 553.427246 444.789124 550.390381 C 437.126526 543.108154 428.987732 536.414001 421.315033 529.1427 C 416.990967 525.005371 412.829956 520.644165 409.249451 515.765198 C 406.213989 511.522675 403.547821 506.821655 402.429871 501.581268 C 394.95575 501.473358 387.336456 501.910309 380.045685 499.825439 C 379.070374 499.617767 378.074677 498.870667 377.068817 499.315704 C 376.045044 499.690582 375.028992 500.087067 374.010406 500.467346 C 374.509491 501.637878 375.441589 502.948669 374.634338 504.218994 C 375.479767 505.273529 376.228394 506.560059 376.101074 508.005676 C 376.085815 509.321869 375.332062 510.446564 375.095215 511.706085 C 375.296417 512.836182 376.067993 513.79364 377.048401 514.270996 C 378.074677 514.772705 379.083099 515.325562 379.966705 516.083435 C 376.717346 516.142822 373.11911 516.196777 370.440125 513.928467 C 369.946075 514.039063 369.434204 514.287231 368.932617 514.106445 C 368.486969 513.960815 368.244995 513.494263 367.944519 513.162476 C 368.115143 514.805054 367.969971 516.585144 366.97934 517.936279 C 368.278046 519.341553 369.816223 520.803345 370.065796 522.869385 C 370.274597 524.336548 369.625244 525.69043 369.014069 526.952698 C 368.598969 528.015381 369.586975 528.908081 370.485931 529.10498 C 372.301636 529.571533 374.17334 529.763062 375.999268 530.19458 C 373.847412 531.443359 371.389954 532.317139 368.909668 531.950317 C 366.661041 531.651001 364.590637 530.499268 362.846283 529.005188 C 362.054352 528.320068 361.002625 527.899353 360.503448 526.898743 C 359.795593 525.534058 359.795593 523.934631 359.563843 522.44043 C 359.38559 521.307678 358.634338 520.425659 358.058838 519.497925 C 356.826263 517.688232 355.899353 515.678833 354.908752 513.720825 C 354.486053 512.860474 354.1091 511.959595 353.961426 510.999451 C 353.823975 510.255066 354.249176 509.596985 354.595551 508.99823 C 356.054657 506.587006 357.483337 504.154266 358.942444 501.745758 C 359.382996 501.138947 359.120697 500.351379 359.163971 499.655518 C 359.209869 497.117554 360.029846 494.647064 361.234375 492.473206 C 356.65564 492.389618 352.056549 491.235229 348.058533 488.832184 C 342.957794 485.935486 338.705078 481.68219 333.744415 478.542786 C 328.437378 480.481934 322.61853 480.392944 317.23764 478.842163 C 316.086639 478.529297 314.813354 477.965637 313.677582 478.629089 C 310.84079 480.279663 309.305145 483.699585 306.297729 485.085876 C 304.469299 485.676514 302.551788 485.897766 300.713165 486.455994 C 297.718384 487.211182 294.412994 488.133606 291.461487 486.725708 C 288.448975 485.40686 286.276794 482.084045 282.803284 482.003113 C 280.62088 485.539001 278.74411 489.322998 276.113525 492.524445 C 274.758759 494.18045 273.072968 495.502014 271.226685 496.478363 C 261.57782 501.829376 251.875488 507.094055 242.519485 513.003418 C 238.796402 515.463135 235.032639 517.925537 231.795944 521.089233 C 228.773209 523.940063 225.97966 527.206177 222.269302 529.075317 C 219.488541 530.577576 216.381683 531.13855 213.343674 531.73999 C 211.749542 532.020508 210.051025 532.141846 208.515457 531.502625 C 207.494278 531.076538 206.480728 530.615295 205.551239 529.997681 C 204.117569 529.026733 203.078568 527.572998 201.983551 526.224487 C 201.04895 524.997314 200.213684 523.686523 199.406433 522.359558 C 200.127121 520.946289 200.868149 519.524902 201.313812 517.979492 C 201.548065 517.367188 201.153351 516.773926 201.015839 516.191345 C 200.246796 513.869141 200.419983 511.242188 201.481888 509.052185 C 201.843475 509.952972 202.113403 511.012939 203.002167 511.501099 C 202.930878 510.349457 202.714417 509.197815 202.844269 508.043427 C 202.935944 506.932251 203.371429 505.901947 203.773758 504.887848 C 204.028397 505.74823 204.150635 506.727264 204.766922 507.406952 C 205.202362 507.903168 205.902664 507.706299 206.468002 507.741364 C 206.348328 506.56546 206.063126 505.389526 206.220978 504.205505 C 206.335602 502.945953 206.908554 501.815918 207.425507 500.69931 C 207.659805 501.842865 207.776932 503.177917 208.915222 503.741608 C 208.446671 502.527924 208.571457 501.233337 209.093521 500.070892 C 209.625748 500.7883 210.061188 501.613617 210.799713 502.123352 C 210.292938 500.5914 210.068802 498.908447 210.75383 497.389984 C 211.301331 498.549744 211.966019 499.801147 213.122147 500.378357 C 213.15271 498.989349 213.409897 497.573395 213.030472 496.211365 C 212.011856 492.025482 211.550919 487.723633 211.02124 483.446106 C 210.853165 480.662659 210.448288 477.871216 210.748764 475.082458 C 210.618866 474.062927 209.60791 473.588196 208.826111 473.19989 C 208.456848 473.774353 208.001007 474.354187 207.978119 475.085083 C 207.919556 476.363525 208.245483 477.617737 208.428833 478.871826 C 207.440781 477.968262 206.389053 477.10791 205.642914 475.953613 C 204.988449 475.039307 204.606461 473.960449 204.168472 472.922058 C 203.837433 473.429077 203.855255 474.05481 203.804321 474.645508 C 202.716965 474.165405 201.838364 473.259216 201.410599 472.09137 C 201.318909 472.412354 201.2323 472.733215 201.145737 473.056946 C 200.636398 472.765686 200.063446 472.54718 199.656006 472.094055 C 199.284195 471.608643 199.095779 471.004456 198.808014 470.465027 C 197.965088 471.368591 198.354691 472.789917 198.255402 473.92804 C 196.854797 472.722473 195.754684 471.112305 195.472031 469.186646 C 194.669876 470.230408 194.789566 471.611267 194.995819 472.849243 C 194.435577 472.309814 193.809128 471.797363 193.488251 471.047607 C 193.073151 470.187256 193.052811 469.20282 192.915298 468.269592 C 192.074921 469.461731 192.085098 470.996338 192.617325 472.328735 C 191.827896 471.794678 190.951904 471.379333 190.271988 470.683472 C 189.727036 470.141357 189.683716 469.307983 189.536026 468.579773 C 188.777161 469.413208 188.395172 470.497375 188.461395 471.657166 C 187.554794 470.624146 186.719543 469.472473 186.403778 468.072754 C 186.268814 468.838684 186.159302 469.612732 186.077805 470.38678 C 185.408066 469.626221 184.667023 468.852173 184.389435 467.821838 C 184.183197 466.961548 184.386887 466.074158 184.496399 465.216492 C 183.819046 464.981873 183.070343 464.844299 182.530457 464.315674 C 181.616287 463.379822 181.137512 462.060913 181 460.73938 L 181 460.361755 C 181.542404 454.843567 184.504059 450.083252 187.111694 445.430725 C 187.396942 444.37616 187.305267 443.229919 187.664307 442.186096 C 188.206711 440.155212 189.693924 438.642151 191.188721 437.344849 C 194.939804 433.951904 198.151001 429.892822 202.233078 426.920654 C 205.146347 424.676697 208.691147 423.325439 212.30217 423.25531 C 212.080582 422.222351 212.251221 421.170532 212.73761 420.253479 C 213.157761 420.266907 213.577972 420.277771 213.998138 420.288513 C 213.822449 419.231262 213.527023 418.190186 213.509201 417.111328 C 213.491409 416.183594 213.804611 415.301636 214.105103 414.44397 C 214.530365 414.576111 214.958191 414.708313 215.386017 414.84314 C 214.98114 412.620728 214.667877 410.239197 215.666153 408.132813 C 218.090439 408.445618 220.558044 408.755798 222.987442 408.316162 C 223.603729 408.192139 224.30658 408.148926 224.749695 407.609558 C 226.715591 405.611023 228.668808 403.353577 231.350327 402.471619 C 232.845169 401.948364 234.444397 402.123657 235.93663 402.549805 C 237.441635 400.750916 239.22934 399.224365 241.246185 398.11853 C 242.468536 397.39032 243.866592 397.034302 245.025269 396.184692 C 246.820587 394.774109 248.18042 392.813354 250.100525 391.570068 C 252.514633 389.994934 255.183426 388.88916 257.918396 388.115051 C 260.905518 387.300537 264.030151 386.860962 267.106384 387.284363 C 272.344604 387.794128 277.414795 389.412354 282.378052 391.184326 C 288.084778 393.385193 293.766144 395.653381 299.434784 397.959412 C 305.128876 400.138611 310.922272 402.272034 316.977936 402.932861 C 320.657654 403.313049 324.551361 403.048767 327.851746 401.123047 C 329.76413 399.963379 331.513611 398.533875 333.342041 397.236572 C 345.682556 388.411743 358.797272 380.544373 372.996857 375.614075 C 381.647552 372.617615 390.700531 370.85376 399.812103 370.735046 Z"/>
</svg>
