<?xml version="1.0" encoding="UTF-8"?>
<!-- Generated by Pixelmator Pro 4.2 -->
<svg width="1000" height="1000" viewBox="0 0 1000 1000" xmlns="http://www.w3.org/2000/svg">
    <path id="path2" fill="#45066a" stroke="none" d="M 344.461945 566.713867 L 344.461945 568.326599 C 334.801544 573.390625 333.714539 587.389282 341.687988 595.06604 C 356.751099 609.596924 378.281342 612.386963 396.069977 621.079712 C 403.924072 624.918091 415.858429 629.578918 421.825623 619.563721 C 426.71225 611.370972 418.922668 598.372192 415.422974 590.905151 C 431.679535 591.324463 449.14563 602.903992 465.386047 597.662537 C 477.094604 593.904846 476.497894 580.59967 465.386047 576.213013 C 453.741943 571.616638 438.824005 576.358154 426.71225 576.390381 C 437.582184 562.617493 475.191559 568.326599 492.835052 568.326599 C 510.026978 568.326599 527.267334 568.713745 544.443115 568.294373 C 551.571472 568.116943 560.135132 564.810791 567.021606 567.50415 C 577.875427 571.729553 587.052002 583.260742 597.663879 589.002075 C 611.323914 596.372375 625.258057 596.8078 639.595398 601.323547 C 657.416321 606.9198 668.608765 612.548218 687.977966 611.306458 C 709.024353 609.967896 700.686462 594.711243 687.977966 587.228027 C 679.543274 582.260803 667.415344 586.55072 659.464478 581.180237 C 646.756104 572.616516 666.431641 551.699097 673.463196 546.780273 C 675.914551 545.054626 678.591736 543.635376 681.526917 542.925781 C 707.169678 536.716675 691.671143 573.116455 712.16925 565.101074 C 721.200623 580.970581 723.926208 544.264404 721.926331 537.74884 C 719.233093 528.927124 708.266357 525.637085 700.880005 521.556824 C 712.282166 516.799194 720.523254 507.542023 731.522217 502.655365 C 749.197937 494.8013 768.744568 491.543518 786.355774 482.431519 C 794.806641 478.060913 809.466492 471.190613 810.208435 460.272278 C 810.885742 450.434509 799.919067 447.225098 792.806824 443.741577 C 774.405273 434.742432 753.32666 424.791748 736.812073 412.825134 C 725.829224 404.858154 710.040405 389.633728 696.041748 388.504822 C 678.156311 387.053345 673.172913 397.197571 658.803284 402.842224 C 651.1427 405.858032 639.498657 402.77771 631.531677 401.939087 C 575.456299 396.052551 516.284424 367.635864 458.967255 376.925293 C 401.101746 386.311523 351.461273 414.534668 318.764343 463.497803 C 305.781708 482.931458 304.412476 510.444977 286.396423 526.088623 C 272.720306 537.958496 258.911926 527.927246 244.471344 523.959839 C 233.644943 520.976196 224.828033 521.266541 213.829071 521.524597 C 207.455475 521.685913 194.132538 519.766724 189.776489 525.879028 C 187.204315 529.491577 191.598907 531.878418 194.571213 532.47522 C 205.59436 534.652344 215.72406 532.507446 226.731079 536.297363 C 262.564819 548.586548 306.568726 568.326599 344.461945 566.713867 Z"/>
</svg>
