<?xml version="1.0" encoding="UTF-8"?>
<!-- Generated by Pixelmator Pro 4.2 -->
<svg width="100" height="100" viewBox="0 0 100 100" xmlns="http://www.w3.org/2000/svg">
    <path id="Path" fill="#e7d6fe" stroke="none" d="M 43 57 L 44.424999 57 L 54.200001 47.224998 L 52.775002 45.799999 L 43 55.575001 L 43 57 Z M 41 59 L 41 54.75 L 54.200001 41.575001 C 54.400002 41.391666 54.620834 41.25 54.862499 41.150002 C 55.104168 41.049999 55.358334 41 55.625 41 C 55.891666 41 56.150002 41.049999 56.400002 41.150002 C 56.650002 41.25 56.866669 41.400002 57.049999 41.599998 L 58.424999 43 C 58.625 43.183334 58.770832 43.400002 58.862499 43.650002 C 58.954166 43.900002 59 44.150002 59 44.400002 C 59 44.666668 58.954166 44.920834 58.862499 45.162498 C 58.770832 45.404167 58.625 45.625 58.424999 45.825001 L 45.25 59 L 41 59 Z M 57 44.400002 L 55.599998 43 L 57 44.400002 Z M 53.474998 46.525002 L 52.775002 45.799999 L 54.200001 47.224998 L 53.474998 46.525002 Z"/>
</svg>
