<?xml version="1.0" encoding="UTF-8"?>
<!-- Generated by Pixelmator Pro 4.2 -->
<svg width="910" height="430" viewBox="0 0 910 430" xmlns="http://www.w3.org/2000/svg">
    <g id="Group">
        <path id="Tag-copy" fill="#000000" fill-rule="evenodd" stroke="none" d="M 699.214294 429.53125 C 717.829529 429.53125 747.82843 405.150391 761 392 L 889.440857 268.46051 C 900.914856 256.986694 908.007019 241.948639 909.638184 225.948654 C 909.879089 225.683487 910 225.416 910 225.147064 L 909.992126 203.917587 C 909.992188 203.647095 909.868225 203.378006 909.623596 203.111343 C 907.980164 187.140274 900.894165 172.131348 889.437073 160.674896 L 765 32 C 751.835938 18.840881 717.811157 -0.442017 699.194519 -0.438934 L 606.666687 -0.443542 L 303.333344 -0.458557 L 98.299271 -0.46875 L 88.583237 0.00882 C 66.079651 2.240997 44.919708 12.183289 28.788975 28.309662 C 10.353853 46.739716 -0 71.736969 -0 97.800995 L 0.003989 203.111313 L 0.011705 225.948654 L 0.015694 331.21933 C 0.01684 385.498474 44.029964 429.499603 98.324165 429.503998 L 303.333344 429.513214 L 606.666687 429.526825 L 699.214111 429.530975 L 699.214294 429.53125 Z M 756.989502 252.292297 C 755.235535 250.538666 753.621582 248.698029 752.147888 246.784256 C 736.652527 226.661942 736.653015 198.45549 752.147888 178.335892 C 753.620911 176.423218 755.234009 174.583603 756.987122 172.830963 C 778.934753 150.889282 814.519165 150.889282 836.467041 172.830963 C 858.414673 194.772812 858.414673 230.347427 836.467041 252.28923 C 814.519165 274.230957 778.934753 274.230957 756.989502 252.292297 Z"/>
    </g>
</svg>
